<svg width="275" height="102" viewBox="0 0 275 102" fill="none" xmlns="http://www.w3.org/2000/svg">
<g clip-path="url(#clip0_1433_5)">
<path d="M167.02 101.493V94.7421C167.02 92.1536 165.436 90.4663 162.721 90.4663C161.363 90.4663 159.893 90.9163 158.874 92.3792C158.083 91.1413 156.952 90.4663 155.255 90.4663C154.123 90.4663 152.992 90.8036 152.087 92.0414V90.6913H149.711V101.493H152.087V95.5294C152.087 93.617 153.105 92.7164 154.689 92.7164C156.272 92.7164 157.065 93.7293 157.065 95.5294V101.493H159.441V95.5294C159.441 93.617 160.571 92.7164 162.042 92.7164C163.626 92.7164 164.418 93.7293 164.418 95.5294V101.493H167.02ZM202.203 90.6913H198.357V87.4283H195.981V90.6913H193.832V92.8287H195.981V97.78C195.981 100.256 196.999 101.718 199.715 101.718C200.733 101.718 201.864 101.381 202.656 100.931L201.977 98.9051C201.298 99.3552 200.507 99.4679 199.941 99.4679C198.81 99.4679 198.357 98.7929 198.357 97.6673V92.8287H202.203V90.6913ZM222.341 90.4658C220.983 90.4658 220.078 91.1413 219.512 92.0414V90.6913H217.137V101.493H219.512V95.4171C219.512 93.617 220.304 92.6042 221.775 92.6042C222.227 92.6042 222.793 92.717 223.246 92.8292L223.924 90.5791C223.472 90.4663 222.793 90.4663 222.341 90.4663M191.909 91.5919C190.777 90.8041 189.193 90.4668 187.496 90.4668C184.782 90.4668 182.972 91.8169 182.972 93.9548C182.972 95.7554 184.329 96.7677 186.705 97.1055L187.836 97.2183C189.081 97.4428 189.759 97.7806 189.759 98.3434C189.759 99.1307 188.854 99.6934 187.27 99.6934C185.687 99.6934 184.442 99.1306 183.65 98.5684L182.519 100.368C183.763 101.269 185.46 101.719 187.157 101.719C190.325 101.719 192.135 100.256 192.135 98.2306C192.135 96.3177 190.664 95.3049 188.401 94.9676L187.27 94.8549C186.252 94.7421 185.46 94.5176 185.46 93.8425C185.46 93.0547 186.252 92.6047 187.496 92.6047C188.854 92.6047 190.212 93.167 190.89 93.5048L191.909 91.5919ZM255.035 90.4668C253.677 90.4668 252.772 91.1419 252.207 92.0419V90.6918H249.831V101.494H252.207V95.4176C252.207 93.6175 252.999 92.6047 254.469 92.6047C254.922 92.6047 255.488 92.7175 255.94 92.8297L256.619 90.5796C256.167 90.4668 255.488 90.4668 255.035 90.4668ZM224.716 96.0927C224.716 99.3557 226.979 101.719 230.486 101.719C232.07 101.719 233.201 101.381 234.332 100.481L233.201 98.5684C232.296 99.2434 231.391 99.5807 230.373 99.5807C228.449 99.5807 227.092 98.2306 227.092 96.0927C227.092 94.0676 228.449 92.717 230.373 92.6047C231.391 92.6047 232.296 92.942 233.201 93.6175L234.332 91.7046C233.201 90.8041 232.07 90.4668 230.486 90.4668C226.979 90.4668 224.716 92.8297 224.716 96.0927ZM246.664 96.0927V90.6918H244.288V92.0419C243.496 91.0296 242.365 90.4668 240.894 90.4668C237.839 90.4668 235.464 92.8297 235.464 96.0927C235.464 99.3557 237.839 101.719 240.894 101.719C242.478 101.719 243.609 101.156 244.288 100.143V101.494H246.664V96.0927ZM237.952 96.0927C237.952 94.1798 239.197 92.6047 241.233 92.6047C243.156 92.6047 244.514 94.0676 244.514 96.0927C244.514 98.0056 243.156 99.5807 241.233 99.5807C239.197 99.4679 237.952 98.0056 237.952 96.0927ZM209.557 90.4668C206.389 90.4668 204.126 92.717 204.126 96.0927C204.126 99.4684 206.389 101.719 209.67 101.719C211.254 101.719 212.838 101.269 214.082 100.256L212.951 98.5684C212.046 99.2434 210.914 99.6934 209.783 99.6934C208.313 99.6934 206.842 99.0184 206.502 97.105H214.535V96.2055C214.648 92.717 212.612 90.4668 209.557 90.4668ZM209.557 92.4919C211.027 92.4919 212.046 93.3925 212.271 95.0804H206.615C206.841 93.6175 207.86 92.4919 209.557 92.4919ZM268.497 96.0927V86.416H266.121V92.0419C265.329 91.0296 264.198 90.4668 262.727 90.4668C259.673 90.4668 257.297 92.8297 257.297 96.0927C257.297 99.3557 259.673 101.719 262.727 101.719C264.311 101.719 265.443 101.156 266.121 100.143V101.494H268.497V96.0927ZM259.786 96.0927C259.786 94.1798 261.03 92.6047 263.067 92.6047C264.99 92.6047 266.348 94.0676 266.348 96.0927C266.348 98.0056 264.99 99.5807 263.067 99.5807C261.03 99.4679 259.786 98.0056 259.786 96.0927ZM180.369 96.0927V90.6918H177.993V92.0419C177.201 91.0296 176.07 90.4668 174.599 90.4668C171.545 90.4668 169.169 92.8297 169.169 96.0927C169.169 99.3557 171.545 101.719 174.599 101.719C176.183 101.719 177.314 101.156 177.993 100.143V101.494H180.369V96.0927ZM171.545 96.0927C171.545 94.1798 172.789 92.6047 174.825 92.6047C176.748 92.6047 178.106 94.0676 178.106 96.0927C178.106 98.0056 176.748 99.5807 174.825 99.5807C172.789 99.4679 171.545 98.0056 171.545 96.0927Z" fill="black"/>
<path d="M191.117 8.66406H226.752V72.3505H191.117V8.66406Z" fill="#FF5F00"/>
<path d="M193.38 40.5073C193.38 27.5677 199.488 16.0904 208.878 8.66385C201.977 3.26297 193.267 0 183.764 0C161.25 0 143.036 18.1155 143.036 40.5073C143.036 62.8986 161.25 81.0146 183.763 81.0146C193.266 81.0146 201.977 77.7517 208.878 72.3503C199.488 65.0365 193.38 53.447 193.38 40.5073Z" fill="#EB001B"/>
<path d="M274.833 40.5073C274.833 62.8986 256.619 81.0146 234.106 81.0146C224.603 81.0146 215.892 77.7517 208.991 72.3503C218.494 64.9243 224.49 53.447 224.49 40.5073C224.49 27.5677 218.381 16.0904 208.991 8.66385C215.892 3.26297 224.603 0 234.106 0C256.619 0 274.833 18.2283 274.833 40.5073Z" fill="#F79E1B"/>
</g>
<g clip-path="url(#clip1_1433_5)">
<path d="M67.2328 33.3732C67.1587 39.2006 72.4444 42.4523 76.4262 44.3858C80.517 46.3695 81.8912 47.6416 81.8749 49.4157C81.8444 52.1305 78.6117 53.3288 75.5867 53.3754C70.3091 53.4568 67.2404 51.9555 64.8009 50.8199L62.8997 59.685C65.3473 60.8089 69.8795 61.789 74.5793 61.832C85.6114 61.832 92.8288 56.4054 92.8679 47.9918C92.9111 37.3136 78.0461 36.7226 78.1476 31.9498C78.1827 30.5026 79.5685 28.9582 82.6051 28.5655C84.1082 28.3671 88.2575 28.2153 92.9618 30.374L94.8082 21.7969C92.2783 20.879 89.0269 20 84.9786 20C74.595 20 67.2917 25.5005 67.2328 33.3732ZM112.55 20.7388C110.535 20.7388 108.838 21.9098 108.08 23.7067L92.3215 61.202H103.345L105.539 55.1606H119.01L120.283 61.202H129.999L121.52 20.7388H112.55ZM114.092 31.6695L117.274 46.8638H108.561L114.092 31.6695ZM53.8669 20.7393L45.1773 61.2015H55.6823L64.3678 20.7383L53.8669 20.7393ZM38.3265 20.7393L27.3924 48.2797L22.9694 24.8624C22.4504 22.2483 20.4009 20.7388 18.1249 20.7388H0.251142L0.000793457 21.9138C3.6702 22.7073 7.83929 23.987 10.3651 25.3563C11.9109 26.1928 12.3517 26.924 12.8595 28.9116L21.2367 61.202H32.3379L49.3575 20.7388L38.3265 20.7393Z" fill="url(#paint0_linear_1433_5)"/>
</g>
<defs>
<linearGradient id="paint0_linear_1433_5" x1="5976.55" y1="145.747" x2="6097.21" y2="-4150.48" gradientUnits="userSpaceOnUse">
<stop stop-color="#222357"/>
<stop offset="1" stop-color="#254AA5"/>
</linearGradient>
<clipPath id="clip0_1433_5">
<rect width="132" height="102" fill="white" transform="translate(143)"/>
</clipPath>
<clipPath id="clip1_1433_5">
<rect width="130" height="42" fill="white" transform="translate(0 20)"/>
</clipPath>
</defs>
</svg>
